<?xml version="1.0" standalone="no"?>
<!DOCTYPE svg PUBLIC "-//W3C//DTD SVG 20010904//EN"
 "http://www.w3.org/TR/2001/REC-SVG-20010904/DTD/svg10.dtd">
<svg version="1.0" xmlns="http://www.w3.org/2000/svg"
 width="512.000000pt" height="512.000000pt" viewBox="0 0 512.000000 512.000000"
 preserveAspectRatio="xMidYMid meet">

<g transform="translate(0.000000,512.000000) scale(0.100000,-0.100000)"
fill="#000000" stroke="none">
<path d="M4191 5045 c-36 -11 -75 -44 -194 -162 -81 -81 -157 -165 -168 -185
-25 -48 -25 -120 1 -172 12 -27 135 -156 347 -367 337 -334 355 -349 429 -349
67 0 99 22 252 174 85 83 162 168 173 188 23 45 25 115 4 166 -19 44 -619 651
-680 687 -52 31 -109 38 -164 20z m423 -434 c323 -324 329 -330 322 -363 -5
-25 -39 -66 -149 -175 -135 -135 -146 -143 -182 -143 -37 0 -49 11 -348 308
-170 169 -315 320 -323 335 -27 51 -12 75 140 225 128 127 146 142 177 142 32
0 59 -24 363 -329z"/>
<path d="M3571 4156 l-194 -195 -112 107 c-187 178 -311 235 -515 235 -97 0
-128 -4 -195 -26 -168 -55 -123 -14 -1253 -1142 -574 -572 -1066 -1068 -1093
-1101 -164 -205 -193 -473 -77 -714 41 -84 46 -90 547 -593 533 -536 582 -579
710 -623 186 -65 361 -51 546 44 65 33 150 115 1155 1121 1170 1170 1134 1130
1183 1286 32 102 31 311 -2 405 -37 106 -94 192 -208 310 l-106 111 34 35 33
34 326 -324 c179 -179 338 -330 353 -335 82 -31 148 -1 264 122 79 83 100 130
89 194 -7 33 -50 81 -369 401 -231 231 -369 362 -381 362 -13 0 -107 -87 -253
-232 -198 -197 -233 -237 -233 -262 0 -24 24 -53 133 -165 74 -75 146 -157
160 -182 94 -161 99 -352 15 -520 -32 -64 -63 -103 -170 -214 -71 -74 -134
-135 -138 -135 -4 0 -34 46 -66 103 -340 601 -883 1145 -1493 1494 -55 32
-101 60 -101 64 0 3 62 66 138 141 183 181 277 228 452 228 176 0 269 -47 456
-231 102 -101 148 -139 165 -139 36 0 479 445 479 481 0 33 -17 49 -55 49 -26
0 -57 -27 -224 -194z m-1449 -452 c77 -39 299 -177 397 -246 463 -328 859
-766 1141 -1261 l73 -129 -717 -716 -716 -717 -76 40 c-200 105 -474 295 -678
471 -328 282 -628 644 -831 1004 -27 47 -57 99 -66 115 l-19 30 718 718 c394
394 718 717 720 717 1 0 26 -12 54 -26z"/>
<path d="M1584 3049 c-275 -274 -334 -338 -334 -361 0 -28 31 -58 59 -58 8 0
129 114 268 252 139 139 253 248 253 243 0 -6 -41 -199 -90 -429 -84 -389 -89
-421 -75 -443 36 -54 47 -46 398 305 343 343 352 355 311 396 -34 35 -53 21
-311 -236 -139 -139 -253 -250 -253 -246 0 3 40 194 90 424 49 231 90 424 90
430 0 17 -24 42 -49 49 -21 6 -61 -30 -357 -326z"/>
<path d="M2584 2425 c-96 -21 -172 -63 -245 -135 -103 -102 -149 -211 -149
-356 0 -221 138 -409 348 -474 88 -27 221 -27 304 1 263 88 407 375 318 635
-29 82 -60 132 -126 197 -68 67 -151 111 -249 132 -84 18 -121 18 -201 0z
m261 -139 c79 -35 156 -112 192 -190 25 -54 28 -72 28 -161 0 -93 -2 -105 -33
-167 -84 -172 -280 -256 -459 -199 -125 40 -212 126 -252 249 -67 203 46 420
254 489 67 22 199 12 270 -21z"/>
<path d="M1803 2154 c-46 -27 -61 -60 -44 -93 17 -32 55 -37 90 -12 36 26 53
26 74 3 23 -25 21 -55 -3 -77 -20 -18 -24 -18 -109 -1 -105 22 -152 16 -214
-25 -79 -52 -71 -84 52 -202 84 -80 114 -93 145 -61 30 29 19 62 -41 125 l-56
59 34 0 c19 -1 60 -7 91 -14 77 -19 138 -6 183 40 139 139 -33 360 -202 258z"/>
</g>
</svg>
